<mxfile host="app.diagrams.net" modified="2024-03-26T11:17:09.420Z" agent="Mozilla/5.0 (Macintosh; Intel Mac OS X 10_15_7) AppleWebKit/537.36 (KHTML, like Gecko) Chrome/123.0.0.0 Safari/537.36" version="24.1.0" etag="Xa6w6jhedtmMwE2CIo_x" type="github">
  <diagram name="Страница — 1" id="_YHh0oIRycDKiK8ngOH5">
    <mxGraphModel>
      <root>
        <mxCell id="0" />
        <mxCell id="1" parent="0" />
      </root>
    </mxGraphModel>
  </diagram>
</mxfile>
